# xmcd CD database file
#
# Track frame offsets:
#	150
#	16870
#	40412
#	65690
#	79517
#	95042
#	110225
#	121515
#	136840
#	155017
#	169815
#	188512
#	203317
#	222147
#	240922
#
# Disc length: 3394 seconds
#
# Revision: 0
# Processed by: cddbd v1.4PL0 Copyright (c) Steve Scherf et al.
# Submitted via: CDex 1.50beta8
#
DISCID=bc0d400f
DTITLE=Buddy Roch - The Golden Essentials
DYEAR=1900
DGENRE=Jazz
TTITLE0=What Is This Thing Called Love?
TTITLE1=Nellie's Nightmare
TTITLE2=Daily Double
TTITLE3=Great Moments
TTITLE4=Handicap
TTITLE5=Let's Blow
TTITLE6=Carioca
TTITLE7=Four Rich Brothers
TTITLE8=I Cover The Water Front
TTITLE9=Poor Little Rich Bud
TTITLE10=A Sunday Kind Of Love
TTITLE11=The Goof And I
TTITLE12=Blue Skies (Budella) Featuring Ella Fitzgerald
TTITLE13=Quiet Riot
TTITLE14=Just You, Just Me
EXTD=
EXTT0=
EXTT1=
EXTT2=
EXTT3=
EXTT4=
EXTT5=
EXTT6=
EXTT7=
EXTT8=
EXTT9=
EXTT10=
EXTT11=
EXTT12=
EXTT13=
EXTT14=
PLAYORDER=
